<svg width="219" height="38" viewBox="0 0 219 38" fill="none" xmlns="http://www.w3.org/2000/svg">
<path d="M27 3H22.5C20.5109 3 18.6032 3.79018 17.1967 5.1967C15.7902 6.60322 15 8.51088 15 10.5V15H10.5V21H15V33H21V21H25.5L27 15H21V10.5C21 10.1022 21.158 9.72064 21.4393 9.43934C21.7206 9.15804 22.1022 9 22.5 9H27V3Z" stroke="white" stroke-width="2" stroke-linecap="round" stroke-linejoin="round"/>
<path d="M84 16.5V10.5M91.5 3H64.5V27H72V33L78 27H85.5L91.5 21V3ZM76.5 16.5V10.5V16.5Z" stroke="white" stroke-width="2" stroke-linecap="round" stroke-linejoin="round"/>
<path d="M144 12C146.387 12 148.676 12.9482 150.364 14.636C152.052 16.3239 153 18.6131 153 21V31.5H147V21C147 20.2044 146.684 19.4413 146.121 18.8787C145.559 18.3161 144.796 18 144 18C143.204 18 142.441 18.3161 141.879 18.8787C141.316 19.4413 141 20.2044 141 21V31.5H135V21C135 18.6131 135.948 16.3239 137.636 14.636C139.324 12.9482 141.613 12 144 12V12Z" stroke="white" stroke-width="2" stroke-linecap="round" stroke-linejoin="round"/>
<path d="M129 13.5H123V31.5H129V13.5Z" stroke="white" stroke-width="2" stroke-linecap="round" stroke-linejoin="round"/>
<path d="M126 9C127.657 9 129 7.65685 129 6C129 4.34315 127.657 3 126 3C124.343 3 123 4.34315 123 6C123 7.65685 124.343 9 126 9Z" stroke="white" stroke-width="2" stroke-linecap="round" stroke-linejoin="round"/>
<path d="M204 33.0006V27.1956C204.056 26.4804 203.96 25.7613 203.717 25.0863C203.473 24.4113 203.089 23.7958 202.59 23.2806C207.3 22.7556 212.25 20.9706 212.25 12.7806C212.25 10.6864 211.444 8.67244 210 7.15564C210.684 5.3234 210.635 3.29816 209.865 1.50064C209.865 1.50064 208.095 0.975639 204 3.72064C200.562 2.78887 196.938 2.78887 193.5 3.72064C189.405 0.975639 187.635 1.50064 187.635 1.50064C186.865 3.29816 186.816 5.3234 187.5 7.15564C186.045 8.68369 185.239 10.7158 185.25 12.8256C185.25 20.9556 190.2 22.7406 194.91 23.3256C194.416 23.8356 194.036 24.4437 193.793 25.1105C193.55 25.7773 193.45 26.4877 193.5 27.1956V33.0006M193.5 28.5006C186 30.7506 186 24.7506 183 24.0006L193.5 28.5006Z" stroke="white" stroke-width="2" stroke-linecap="round" stroke-linejoin="round"/>
</svg>
